<svg width="96" height="96" viewBox="0 0 96 96" fill="none" xmlns="http://www.w3.org/2000/svg" role="img" aria-label="NurseFaculty logo mark">
  <defs>
    <linearGradient id="teal" x1="18" y1="10" x2="58" y2="88" gradientUnits="userSpaceOnUse">
      <stop stop-color="#19B8A8"/>
      <stop offset="1" stop-color="#08776F"/>
    </linearGradient>
    <linearGradient id="navy" x1="48" y1="22" x2="86" y2="88" gradientUnits="userSpaceOnUse">
      <stop stop-color="#193049"/>
      <stop offset="1" stop-color="#071C2F"/>
    </linearGradient>
  </defs>
  <path d="M13 15C11.3 15 10.5 17.1 11.7 18.3L42.8 50.4C46.1 53.8 48 58.4 48 63.1V84.3C48 86.2 50.4 87.1 51.6 85.6L63.4 70.4C66.4 66.5 68 61.8 68 56.9V53.8C68 49.8 69.6 46 72.4 43.2L91.3 18.3C92.5 17.1 91.7 15 90 15H69.9C65.9 15 62.1 16.6 59.3 19.4L48.1 30.7C45.8 33.1 42 33.1 39.7 30.7L28.7 19.5C25.9 16.6 22 15 18 15H13Z" fill="url(#teal)"/>
  <path d="M70 36.5C70 34.6 71.6 33 73.5 33H83C88 33 92 37 92 42V82C92 86.4 88.4 90 84 90H79.4C76.2 90 73.1 88.7 70.8 86.4L47 62.6C45.8 61.4 45.8 59.5 47 58.3L58.1 47.2C59.3 46 61.2 46 62.4 47.2L70 54.8V36.5Z" fill="url(#navy)"/>
</svg>
