<svg width="720" height="260" viewBox="0 0 720 260" fill="none" xmlns="http://www.w3.org/2000/svg" role="img" aria-label="Yingoh NCLEX Coaching">
  <rect width="720" height="260" fill="white"/>
  <defs>
    <linearGradient id="teal" x1="230" y1="16" x2="344" y2="166" gradientUnits="userSpaceOnUse">
      <stop stop-color="#19B8A8"/>
      <stop offset="1" stop-color="#08776F"/>
    </linearGradient>
    <linearGradient id="navy" x1="344" y1="66" x2="474" y2="166" gradientUnits="userSpaceOnUse">
      <stop stop-color="#193049"/>
      <stop offset="1" stop-color="#071C2F"/>
    </linearGradient>
  </defs>
  <path d="M219 32C216.4 32 215.2 35.1 217.1 36.9L281.4 101.6C288.7 109 292.8 119 292.8 129.4V172.7C292.8 175.7 296.6 177.1 298.4 174.7L322 144.3C328.4 136.1 331.8 126 331.8 115.6V111.3C331.8 103.2 335 95.5 340.7 89.8L394.9 36.9C396.8 35.1 395.6 32 393 32H348.1C339.6 32 331.4 35.4 325.4 41.5L303.3 63.8C299 68.2 291.9 68.2 287.6 63.8L265.8 41.6C259.7 35.4 251.5 32 242.9 32H219Z" fill="url(#teal)"/>
  <path d="M361.5 81.5C361.5 78.5 364 76 367 76H391.7C402.7 76 411.6 84.9 411.6 95.9V162.8C411.6 169.6 406.1 175.1 399.3 175.1H390.7C383 175.1 375.7 172 370.3 166.6L323.2 119.5C321.3 117.6 321.3 114.5 323.2 112.6L346.6 89.2C348.5 87.3 351.6 87.3 353.5 89.2L361.5 97.2V81.5Z" fill="url(#navy)"/>
  <text x="136" y="224" fill="#071C2F" font-family="Inter, Arial, sans-serif" font-size="62" font-weight="800" letter-spacing="26">YINGOH</text>
  <path d="M195 244H248" stroke="#129B91" stroke-width="5" stroke-linecap="round"/>
  <text x="274" y="250" fill="#129B91" font-family="Inter, Arial, sans-serif" font-size="26" font-weight="700" letter-spacing="14">NCLEX COACHING</text>
  <path d="M556 244H609" stroke="#129B91" stroke-width="5" stroke-linecap="round"/>
</svg>
